<?xml version="1.0" encoding="UTF-8"?>
<!DOCTYPE svg PUBLIC "-//W3C//DTD SVG 1.1//EN" "http://www.w3.org/Graphics/SVG/1.1/DTD/svg11.dtd">
<!-- Creator: CorelDRAW X6 -->
<svg xmlns="http://www.w3.org/2000/svg" xml:space="preserve" width="12.5423mm" height="9.7283mm" version="1.1" style="shape-rendering:geometricPrecision; text-rendering:geometricPrecision; image-rendering:optimizeQuality; fill-rule:evenodd; clip-rule:evenodd"
viewBox="0 0 98 76"
 xmlns:xlink="http://www.w3.org/1999/xlink">
 <defs>
  <style type="text/css">
   <![CDATA[
    .fil0 {fill:#868686}
   ]]>
  </style>
 </defs>
 <g id="Plan_x0020_1">
  <metadata id="CorelCorpID_0Corel-Layer"/>
  <path class="fil0" d="M63 35c-1,-2 2,-6 4,-2 3,5 -4,5 -4,2zm1 34c-6,1 -25,1 -32,0 -17,-2 -24,-21 -24,-36 6,0 12,-1 17,0 2,1 0,5 6,7 4,1 5,1 8,-2 2,-3 0,-5 1,-6 7,2 12,-1 19,0 -1,3 -1,4 0,7 1,2 4,2 7,2 2,1 4,-2 5,-4 0,-1 0,-3 1,-4l0 -1c6,0 12,0 18,0 0,11 -15,35 -26,37zm7 5c12,-6 26,-31 27,-45 0,-2 0,-2 -2,-2 -7,0 -15,-1 -22,-1 0,-5 0,-5 0,-9 0,-10 -4,-14 -12,-16 -7,-1 -18,-1 -24,0 -6,2 -11,4 -12,9 -2,13 -1,12 -2,16 -3,1 -20,-1 -24,1 -1,1 3,17 4,20 2,8 8,21 16,25 7,5 43,6 51,2zm-34 -39c-2,1 -3,1 -5,1 -2,-2 -2,-6 2,-5 1,1 3,2 3,4zm12 -29c4,0 14,1 17,4 2,1 0,12 -2,15 -8,0 -24,1 -31,0 -1,-4 -3,-12 0,-15 3,-3 11,-4 16,-4z"/>
 </g>
</svg>
